<!-- Favicon para o APP AGRO -->
<svg xmlns="http://www.w3.org/2000/svg" width="32" height="32" viewBox="0 0 32 32">
  <defs>
    <linearGradient id="grad1" x1="0%" y1="0%" x2="100%" y2="100%">
      <stop offset="0%" style="stop-color:#4CAF50;stop-opacity:1" />
      <stop offset="100%" style="stop-color:#2E7D32;stop-opacity:1" />
    </linearGradient>
  </defs>
  <circle cx="16" cy="16" r="15" fill="url(#grad1)" stroke="#fff" stroke-width="1"/>
  <path d="M11,24 L11,12 C11,10 13,9 15,10.5 L24,16.5 C25,18 25,20 24,21.5 L15,27.5 C13,29 11,28 11,26 Z" fill="#fff" transform="scale(0.8) translate(2, 0)"/>
  <path d="M8,10 L8,13 L5,13 L5,16 L8,16 L8,19 L11,19 L11,16 L14,16 L14,13 L11,13 L11,10 Z" fill="#fff" transform="rotate(-15, 9.5, 14.5) scale(0.6)" />
</svg>
