<!-- Esse é um arquivo SVG para o ícone do APP AGRO -->
<svg xmlns="http://www.w3.org/2000/svg" width="192" height="192" viewBox="0 0 192 192">
  <defs>
    <linearGradient id="grad1" x1="0%" y1="0%" x2="100%" y2="100%">
      <stop offset="0%" style="stop-color:#4CAF50;stop-opacity:1" />
      <stop offset="100%" style="stop-color:#2E7D32;stop-opacity:1" />
    </linearGradient>
  </defs>
  <circle cx="96" cy="96" r="88" fill="url(#grad1)" stroke="#fff" stroke-width="4"/>
  <path d="M68,140 L68,70 C68,60 78,52 88,60 L136,95 C146,103 146,117 136,125 L88,160 C78,168 68,160 68,150 Z" fill="#fff"/>
  <path d="M50,60 L50,80 L30,80 L30,100 L50,100 L50,120 L70,120 L70,100 L90,100 L90,80 L70,80 L70,60 Z" fill="#fff" transform="rotate(-15, 60, 90) scale(0.6)" />
</svg>
